<svg width="676" height="338" viewBox="0 0 676 338" fill="none" xmlns="http://www.w3.org/2000/svg">
<rect x="214" width="244" height="338" rx="122" fill="#C7B0FF"/>
<mask id="mask0_1008_7270" style="mask-type:alpha" maskUnits="userSpaceOnUse" x="214" y="0" width="244" height="338">
<rect x="214" width="244" height="338" rx="122" fill="#5B84EE"/>
</mask>
<g mask="url(#mask0_1008_7270)">
<mask id="mask1_1008_7270" style="mask-type:alpha" maskUnits="userSpaceOnUse" x="198" y="26" width="320" height="339">
<rect x="198" y="26.5293" width="320" height="338" rx="160" fill="#5B84EE"/>
</mask>
<g mask="url(#mask1_1008_7270)">
<path d="M518 364.529V26.5293L198 259.29V364.529H518Z" fill="#DFD2FF"/>
</g>
</g>
<ellipse cx="372" cy="98.5" rx="12" ry="32.5" fill="black"/>
<ellipse cx="299" cy="98.5" rx="12" ry="32.5" fill="black"/>
<path d="M131.753 107.959C114.523 117.367 81.6626 179.116 81.6626 179.116C81.6626 179.116 152.153 186.287 169.384 176.879C186.615 167.471 204.762 133.69 195.598 116.907C186.435 100.124 148.984 98.5513 131.753 107.959Z" fill="#AACFCD"/>
<path d="M81.6084 179.101C81.6084 179.101 114.469 117.353 131.699 107.945C148.93 98.5368 186.38 100.109 195.544 116.892L138.576 147.997L81.6084 179.101Z" fill="#90AEAD"/>
<path d="M543.287 97.9593C560.517 107.367 593.377 169.116 593.377 169.116C593.377 169.116 522.887 176.287 505.656 166.879C488.426 157.471 470.278 123.69 479.442 106.907C488.605 90.1235 526.056 88.5513 543.287 97.9593Z" fill="#AACFCD"/>
<path d="M593.432 169.101C593.432 169.101 560.571 107.353 543.341 97.9447C526.11 88.5368 488.66 90.109 479.496 106.892L536.464 137.997L593.432 169.101Z" fill="#90AEAD"/>
</svg>
