<svg width="476" height="552" viewBox="0 0 476 552" fill="none" xmlns="http://www.w3.org/2000/svg">
<rect x="112" y="214" width="244" height="338" rx="122" fill="#5B84EE"/>
<mask id="mask0_1008_7271" style="mask-type:alpha" maskUnits="userSpaceOnUse" x="112" y="214" width="244" height="338">
<rect x="112" y="214" width="244" height="338" rx="122" fill="#A1B3E2"/>
</mask>
<g mask="url(#mask0_1008_7271)">
<mask id="mask1_1008_7271" style="mask-type:alpha" maskUnits="userSpaceOnUse" x="96" y="240" width="320" height="339">
<rect x="96" y="240.529" width="320" height="338" rx="160" fill="#A1B3E2"/>
</mask>
<g mask="url(#mask1_1008_7271)">
<path d="M416 578.529V240.529L96 473.29V578.529H416Z" fill="#A1B3E2"/>
</g>
</g>
<path d="M181.881 134.644C171.179 118.186 107.09 90.1626 107.09 90.1626C107.09 90.1626 105.351 160.996 116.053 177.453C126.756 193.911 161.831 209.412 177.861 198.987C193.891 188.562 192.584 151.101 181.881 134.644Z" fill="#AACFCD"/>
<path d="M107.1 90.1074C107.1 90.1074 171.189 118.131 181.892 134.588C192.595 151.046 193.902 188.507 177.872 198.932L142.486 144.52L107.1 90.1074Z" fill="#90AEAD"/>
<path d="M292.237 129.229C305.26 114.539 372.794 96.3214 372.794 96.3214C372.794 96.3214 364.018 166.63 350.995 181.32C337.971 196.01 300.987 206.143 286.678 193.457C272.37 180.772 279.214 143.919 292.237 129.229Z" fill="#AACFCD"/>
<path d="M372.792 96.2654C372.792 96.2654 305.258 114.483 292.234 129.173C279.211 143.863 272.367 180.716 286.676 193.401L329.734 144.833L372.792 96.2654Z" fill="#90AEAD"/>
<ellipse cx="234" cy="314.5" rx="12" ry="32.5" fill="black"/>
</svg>
