<svg width="244" height="524" viewBox="0 0 244 524" fill="none" xmlns="http://www.w3.org/2000/svg">
<rect y="186" width="244" height="338" rx="122" fill="#F59351"/>
<mask id="mask0_1008_7272" style="mask-type:alpha" maskUnits="userSpaceOnUse" x="0" y="186" width="244" height="338">
<rect y="186" width="244" height="338" rx="122" fill="#FDB98B"/>
</mask>
<g mask="url(#mask0_1008_7272)">
<mask id="mask1_1008_7272" style="mask-type:alpha" maskUnits="userSpaceOnUse" x="-16" y="212" width="320" height="339">
<rect x="-16" y="212.529" width="320" height="338" rx="160" fill="#FDB98B"/>
</mask>
<g mask="url(#mask1_1008_7272)">
<path d="M304 550.529V212.529L-16 445.29V550.529H304Z" fill="#FDB98B"/>
</g>
</g>
<path d="M81.2535 115.634C81.7791 96.0093 121.779 38.6271 121.779 38.6271C121.779 38.6271 160.275 98.1119 159.749 117.737C159.223 137.361 137.418 168.905 118.303 168.393C99.188 167.881 80.7278 135.259 81.2535 115.634Z" fill="#AACFCD"/>
<path d="M121.741 38.5854C121.741 38.5854 81.7413 95.9676 81.2156 115.592C80.6899 135.217 99.1501 167.84 118.265 168.352L120.003 103.468L121.741 38.5854Z" fill="#90AEAD"/>
<ellipse cx="158" cy="420.5" rx="12" ry="32.5" fill="black"/>
<ellipse cx="85" cy="420.5" rx="12" ry="32.5" fill="black"/>
</svg>
