<svg width="509" height="425" viewBox="0 0 509 425" fill="none" xmlns="http://www.w3.org/2000/svg">
<rect x="133" y="87" width="244" height="338" rx="122" fill="#FFDF36"/>
<mask id="mask0_1008_7273" style="mask-type:alpha" maskUnits="userSpaceOnUse" x="134" y="87" width="244" height="338">
<rect x="134" y="87" width="244" height="338" rx="122" fill="#FEEB87"/>
</mask>
<g mask="url(#mask0_1008_7273)">
<mask id="mask1_1008_7273" style="mask-type:alpha" maskUnits="userSpaceOnUse" x="118" y="113" width="320" height="339">
<rect x="118" y="113.529" width="320" height="338" rx="160" fill="#FEEB87"/>
</mask>
<g mask="url(#mask1_1008_7273)">
<path d="M438 451.529V113.529L118 346.29V451.529H438Z" fill="#FEEB87"/>
</g>
</g>
<path d="M366.253 115.634C366.779 96.0093 406.779 38.6271 406.779 38.6271C406.779 38.6271 445.275 98.1119 444.749 117.737C444.223 137.361 422.418 168.905 403.303 168.393C384.188 167.881 365.728 135.259 366.253 115.634Z" fill="#AACFCD"/>
<path d="M406.741 38.5854C406.741 38.5854 366.741 95.9676 366.216 115.592C365.69 135.217 384.15 167.84 403.265 168.352L405.003 103.468L406.741 38.5854Z" fill="#90AEAD"/>
<path d="M63.2535 115.634C63.7791 96.0093 103.779 38.6271 103.779 38.6271C103.779 38.6271 142.275 98.1119 141.749 117.737C141.223 137.361 119.418 168.905 100.303 168.393C81.188 167.881 62.7278 135.259 63.2535 115.634Z" fill="#AACFCD"/>
<path d="M103.741 38.5854C103.741 38.5854 63.7413 95.9676 63.2156 115.592C62.6899 135.217 81.1501 167.84 100.265 168.352L102.003 103.468L103.741 38.5854Z" fill="#90AEAD"/>
<ellipse cx="291" cy="213.5" rx="12" ry="32.5" fill="black"/>
<ellipse cx="218" cy="213.5" rx="12" ry="32.5" fill="black"/>
</svg>
