<svg width="572" height="459" viewBox="0 0 572 459" fill="none" xmlns="http://www.w3.org/2000/svg">
<rect x="411.686" y="458.063" width="244" height="338" rx="122" transform="rotate(-180 411.686 458.063)" fill="#C9504A"/>
<mask id="mask0_1008_7218" style="mask-type:alpha" maskUnits="userSpaceOnUse" x="168" y="120" width="244" height="338">
<rect x="168" y="120" width="244" height="338" rx="122" fill="#EB837E"/>
</mask>
<g mask="url(#mask0_1008_7218)">
<mask id="mask1_1008_7218" style="mask-type:alpha" maskUnits="userSpaceOnUse" x="152" y="146" width="320" height="339">
<rect x="152" y="146.529" width="320" height="338" rx="160" fill="#EB837E"/>
</mask>
<g mask="url(#mask1_1008_7218)">
<path d="M472 484.529V146.529L152 379.29V484.529H472Z" fill="#EB837E"/>
</g>
</g>
<path d="M397.248 153.644C404.774 135.512 462.685 96.2822 462.685 96.2822C462.685 96.2822 477.299 165.613 469.773 183.745C462.248 201.877 430.584 223.508 412.923 216.178C395.261 208.848 389.722 171.776 397.248 153.644Z" fill="#AACFCD"/>
<path d="M462.664 96.2299C462.664 96.2299 404.753 135.46 397.227 153.592C389.702 171.724 395.241 208.796 412.902 216.126L437.783 156.178L462.664 96.2299Z" fill="#90AEAD"/>
<path d="M127.848 203.551C113.794 189.843 98.8123 121.519 98.8123 121.519C98.8123 121.519 168.624 133.632 182.677 147.34C196.73 161.048 205.091 198.472 191.739 212.161C178.387 225.849 141.901 217.259 127.848 203.551Z" fill="#AACFCD"/>
<path d="M98.7559 121.518C98.7559 121.518 113.738 189.842 127.791 203.55C141.845 217.258 178.33 225.849 191.682 212.16L145.219 166.839L98.7559 121.518Z" fill="#90AEAD"/>
<path d="M322.996 149.862C323.905 130.251 365.021 73.6629 365.021 73.6629C365.021 73.6629 402.345 133.89 401.435 153.501C400.525 173.111 378.106 204.222 359.005 203.336C339.904 202.45 322.086 169.472 322.996 149.862Z" fill="#AACFCD"/>
<path d="M364.984 73.6207C364.984 73.6207 323.868 130.209 322.959 149.819C322.049 169.43 339.867 202.408 358.968 203.294L361.976 138.457L364.984 73.6207Z" fill="#90AEAD"/>
<path d="M249.996 140.862C250.905 121.251 292.021 64.6629 292.021 64.6629C292.021 64.6629 329.345 124.89 328.435 144.501C327.525 164.111 305.106 195.222 286.005 194.336C266.904 193.45 249.086 160.472 249.996 140.862Z" fill="#AACFCD"/>
<path d="M291.984 64.6207C291.984 64.6207 250.868 121.209 249.959 140.819C249.049 160.43 266.867 193.408 285.968 194.294L288.976 129.457L291.984 64.6207Z" fill="#90AEAD"/>
<path d="M177.213 158.256C170.821 139.694 188.151 71.9267 188.151 71.9267C188.151 71.9267 245.067 114.129 251.458 132.691C257.85 151.253 248.495 188.441 230.415 194.667C212.335 200.892 183.604 176.818 177.213 158.256Z" fill="#AACFCD"/>
<path d="M188.101 71.9009C188.101 71.9009 170.771 139.668 177.163 158.23C183.554 176.792 212.284 200.867 230.365 194.641L209.233 133.271L188.101 71.9009Z" fill="#90AEAD"/>
<ellipse cx="253.686" cy="256.563" rx="12" ry="32.5" transform="rotate(-180 253.686 256.563)" fill="black"/>
<ellipse cx="326.686" cy="256.563" rx="12" ry="32.5" transform="rotate(-180 326.686 256.563)" fill="black"/>
</svg>
