<svg width="25" height="25" viewBox="0 0 25 25" fill="none" xmlns="http://www.w3.org/2000/svg">
<path d="M12.7043 7.85156C12.1543 7.85156 11.7043 8.30156 11.7043 8.85156V11.8516H8.70428C8.15428 11.8516 7.70428 12.3016 7.70428 12.8516C7.70428 13.4016 8.15428 13.8516 8.70428 13.8516H11.7043V16.8516C11.7043 17.4016 12.1543 17.8516 12.7043 17.8516C13.2543 17.8516 13.7043 17.4016 13.7043 16.8516V13.8516H16.7043C17.2543 13.8516 17.7043 13.4016 17.7043 12.8516C17.7043 12.3016 17.2543 11.8516 16.7043 11.8516H13.7043V8.85156C13.7043 8.30156 13.2543 7.85156 12.7043 7.85156ZM12.7043 2.85156C7.18428 2.85156 2.70428 7.33156 2.70428 12.8516C2.70428 18.3716 7.18428 22.8516 12.7043 22.8516C18.2243 22.8516 22.7043 18.3716 22.7043 12.8516C22.7043 7.33156 18.2243 2.85156 12.7043 2.85156ZM12.7043 20.8516C8.29428 20.8516 4.70428 17.2616 4.70428 12.8516C4.70428 8.44156 8.29428 4.85156 12.7043 4.85156C17.1143 4.85156 20.7043 8.44156 20.7043 12.8516C20.7043 17.2616 17.1143 20.8516 12.7043 20.8516Z" fill="white"/>
</svg>
