<svg width="117" height="122" viewBox="0 0 117 122" fill="none" xmlns="http://www.w3.org/2000/svg">
<rect width="116.498" height="122" rx="3.53025" fill="#D8EDE6"/>
<path d="M76.6062 77.8184C78.9009 77.8184 80.8425 75.965 80.8425 73.5821V48.1643C80.8425 45.8696 78.9009 43.928 76.6062 43.928H39.8917C37.5088 43.928 35.6554 45.8696 35.6554 48.1643V73.5821C35.6554 75.965 37.5088 77.8184 39.8917 77.8184H76.6062ZM45.5401 48.8703C48.1878 48.8703 50.4824 51.165 50.4824 53.8127C50.4824 56.5486 48.1878 58.755 45.5401 58.755C42.8041 58.755 40.5977 56.5486 40.5977 53.8127C40.5977 51.165 42.8041 48.8703 45.5401 48.8703ZM41.3038 72.17V67.9337L47.57 61.6675C48.0113 61.2262 48.629 61.2262 49.0703 61.6675L54.0127 66.5216L65.9273 54.607C66.3685 54.1657 66.9863 54.1657 67.4276 54.607L75.1941 62.2853V72.17H41.3038Z" fill="#307473"/>
<rect x="0.313721" y="0.314453" width="116.498" height="116.498" rx="3.53025" fill="#D8EDE6"/>
<path d="M58.4364 58.3476L55.1011 58.3456L51.6494 55.5532C52.6976 54.27 52.8984 52.4156 52.1527 50.9043C51.4316 49.4432 51.5935 47.6554 52.5627 46.374L53.2216 45.5029C54.1221 44.3123 54.331 42.6752 53.7623 41.2646L53.4972 40.6067C52.9996 39.3723 53.0936 37.9515 53.7487 36.8066L54.5706 35.3702C55.1724 34.3184 55.3035 33.0283 54.9271 31.8599L54.7034 31.1653C54.4378 30.3408 54.4184 29.4444 54.6583 28.6106C55.1445 26.9216 55.7561 25.3182 56.6062 23.8776C57.4563 22.4366 59.4167 22.4366 60.2669 23.8776C61.1169 25.3182 61.7285 26.9216 62.2147 28.6106C62.4546 29.4443 62.4352 30.3408 62.1696 31.1653L61.9459 31.8599C61.5695 33.0283 61.7005 34.3184 62.3024 35.3702L63.1244 36.8066C63.7794 37.9515 63.8735 39.3722 63.3759 40.6067L63.1107 41.2646C62.542 42.6752 62.751 44.3123 63.6514 45.5029L64.3103 46.374C65.2796 47.6554 65.4414 49.4432 64.7204 50.9043C63.9747 52.4155 64.1754 54.27 65.2236 55.5532L61.0246 58.347L58.4364 58.3476Z" fill="#69AF81"/>
<path d="M58.8391 58.7074C58.6435 58.7074 58.4454 58.6548 58.2668 58.5443C57.7551 58.2277 57.597 57.5563 57.9136 57.0446C58.5606 55.999 58.5256 54.594 57.8269 53.5486C56.6913 51.8496 56.6027 49.6166 57.6012 47.8597L58.1409 46.91C58.6856 45.9515 58.6786 44.6961 58.1228 43.7114L57.7739 43.0937C56.9568 41.6467 56.8427 39.8714 57.4684 38.3446C57.6963 37.7878 58.3331 37.5215 58.8896 37.7496C59.4464 37.9777 59.7128 38.6141 59.4846 39.1708C59.1098 40.0855 59.1796 41.1516 59.6714 42.0224L60.0203 42.6402C60.9588 44.3029 60.9646 46.3515 60.0354 47.9867L59.4956 48.9364C58.9101 49.9669 58.9674 51.3338 59.6384 52.3378C60.8032 54.0804 60.8545 56.4326 59.7666 58.1912C59.5605 58.5241 59.204 58.7074 58.8391 58.7074Z" fill="#5EA570"/>
<path d="M50.9792 52.4209L45.2249 51.0107C44.3955 50.8074 43.5572 50.3358 42.8777 49.69L41.3454 48.234C40.4968 47.4275 39.4115 46.9023 38.4156 46.8157L38.0767 46.7863C36.5168 46.6508 34.8319 45.4591 34.1057 43.9778C33.7887 43.3311 33.2739 42.7148 32.6376 42.2206L32.4187 42.0505C31.2656 41.1549 31.4994 39.803 32.7678 40.0326C33.3458 40.132 33.8805 40.089 34.3166 39.9079L34.8579 39.683C35.9869 39.2143 37.675 39.6993 38.9458 40.8573L39.436 41.3041C40.3034 42.0945 41.3935 42.5931 42.3791 42.6499L43.9596 42.7411C44.8659 42.7934 45.8649 43.2197 46.699 43.91L51.6979 48.0476L50.9792 52.4209Z" fill="#4F8980"/>
<path d="M57.1352 57.8942L56.6314 59.0597C55.8234 60.929 53.7757 62.0899 51.6095 61.9066L50.793 61.8375C49.4783 61.7263 48.1664 62.1112 47.1567 62.9042L45.7916 63.9764C44.8081 64.7489 43.5366 65.1349 42.2535 65.0504L39.8557 64.8927C38.515 64.8044 37.1897 65.2299 36.1922 66.0687L35.8653 66.3436C34.3112 67.6505 32.0339 67.9051 30.2047 66.9763L30.0905 66.9183C29.2938 66.5138 28.3881 66.3239 27.4765 66.3703L25.5819 66.4667C24.4412 66.5248 23.9244 65.1833 24.8448 64.5535L25.5457 64.0739C26.2905 63.5641 26.8651 62.8712 27.2024 62.0755C27.9707 60.2634 29.9074 59.0993 32.0093 59.1863L32.9062 59.2233C34.257 59.2793 35.577 58.8162 36.5518 57.9445L37.878 56.7586C38.8213 55.915 40.0894 55.453 41.398 55.4759L43.0614 55.5053C44.218 55.5257 45.3483 55.1669 46.2509 54.4929L47.5235 53.5425C48.4133 52.878 49.5248 52.5196 50.6652 52.5295L54.3315 52.5611L57.1352 57.8942Z" fill="#4F8980"/>
<path d="M50.4505 56.6493C49.9011 56.2224 49.2333 55.9308 48.457 55.7627C46.3304 55.3023 43.9163 56.2319 42.4769 57.9212C42.2118 58.2323 41.9038 58.5003 41.5599 58.73C40.3562 59.5344 38.8202 59.765 37.5346 59.4055C36.2923 59.0581 35.1382 59.0598 34.0955 59.5024C32.4896 60.1841 30.7035 60.0758 29.5543 59.1746L27.4004 57.4856C26.5779 56.8407 26.7816 55.6213 27.8227 54.9566L28.6875 54.4044C31.7506 52.4485 35.333 51.2934 38.9021 51.1109L39.0337 51.1041C40.2753 51.0406 41.4864 51.1439 42.6543 51.3577C43.8833 51.5828 45.2065 51.5616 46.5262 51.2882C49.3265 50.7083 52.0964 51.1855 54.0843 52.5903L57.4879 54.9955L51.4229 57.3537L50.4505 56.6493Z" fill="#69AF81"/>
<path d="M65.8931 52.4209L71.6474 51.0107C72.4769 50.8074 73.3152 50.3358 73.9946 49.69L75.5269 48.234C76.3755 47.4275 77.4608 46.9023 78.4567 46.8157L78.7956 46.7863C80.3555 46.6508 82.0405 45.4591 82.7666 43.9778C83.0836 43.3311 83.5984 42.7148 84.2347 42.2206L84.4536 42.0505C85.6067 41.1549 85.3729 39.803 84.1045 40.0326C83.5265 40.132 82.9918 40.089 82.5557 39.9079L82.0144 39.683C80.8854 39.2143 79.1974 39.6993 77.9266 40.8573L77.4363 41.3041C76.5689 42.0945 75.4788 42.5931 74.4932 42.6499L72.9127 42.7411C72.0065 42.7934 71.0074 43.2197 70.1734 43.91L65.1743 48.0479L65.8931 52.4209Z" fill="#4F8980"/>
<path d="M59.7373 57.8942L60.2411 59.0597C61.0491 60.929 63.0968 62.0899 65.263 61.9066L66.0795 61.8375C67.3942 61.7263 68.706 62.1112 69.7158 62.9042L71.0809 63.9764C72.0644 64.7489 73.3359 65.1349 74.619 65.0504L77.0168 64.8927C78.3575 64.8044 79.6828 65.2299 80.6803 66.0687L81.0072 66.3436C82.5613 67.6505 84.8386 67.9051 86.6678 66.9763L86.782 66.9183C87.5787 66.5138 88.4844 66.3239 89.396 66.3703L91.2906 66.4667C92.4313 66.5248 92.948 65.1833 92.0277 64.5535L91.3268 64.0739C90.582 63.5641 90.0074 62.8712 89.6701 62.0755C88.9018 60.2634 86.9651 59.0993 84.8631 59.1863L83.9663 59.2233C82.6155 59.2793 81.2955 58.8162 80.3207 57.9445L78.9945 56.7586C78.0512 55.915 76.783 55.453 75.4745 55.4759L73.8111 55.5053C72.6545 55.5257 71.5242 55.1669 70.6216 54.4929L69.349 53.5425C68.4592 52.878 67.3477 52.5196 66.2073 52.5295L62.541 52.5611L59.7373 57.8942Z" fill="#4F8980"/>
<path d="M66.4221 56.6493C66.9716 56.2224 67.6394 55.9308 68.4157 55.7627C70.5423 55.3023 72.9564 56.2319 74.3958 57.9212C74.6608 58.2323 74.9688 58.5003 75.3128 58.73C76.5165 59.5344 78.0524 59.765 79.338 59.4055C80.5804 59.0581 81.7344 59.0598 82.7772 59.5024C84.383 60.1841 86.1692 60.0758 87.3183 59.1746L89.4723 57.4856C90.2948 56.8407 90.0911 55.6213 89.0499 54.9566L88.1851 54.4044C85.1221 52.4485 81.5396 51.2934 77.9705 51.1109L77.839 51.1041C76.5974 51.0406 75.3862 51.1439 74.2183 51.3577C72.9894 51.5828 71.6662 51.5616 70.3465 51.2882C67.5462 50.7083 64.7762 51.1855 62.7883 52.5903L61.1426 56.754L65.4496 57.3537L66.4221 56.6493Z" fill="#69AF81"/>
<path d="M57.4367 67.5062L63.6154 64.9227L60.9845 62.9956C59.7756 62.1101 58.9239 60.4561 58.8495 58.8494C58.7776 57.296 57.978 55.6924 56.8237 54.786L56.0388 54.1697C54.9662 53.3275 54.1928 51.8764 54.0365 50.4129L53.9636 49.7304C53.8268 48.4496 53.2151 47.1655 52.3273 46.2956L51.2136 45.2043C50.3981 44.4052 49.8114 43.2521 49.6174 42.0668L49.5021 41.3623C49.3652 40.5258 49.033 39.6933 48.5481 38.9923C47.5657 37.572 46.5307 36.2668 45.3961 35.1796C44.2612 34.092 42.9254 34.6501 42.9016 36.2217C42.8777 37.7931 43.0789 39.4466 43.3988 41.1435C43.5566 41.9811 43.9154 42.8027 44.4143 43.4879L44.8345 44.0652C45.5414 45.0361 45.9495 46.2638 45.9449 47.4056L45.9385 48.9649C45.9334 50.2078 46.4171 51.5455 47.232 52.5429L47.6663 53.0745C48.5977 54.2142 49.0864 55.7843 48.9316 57.1391L48.8184 58.1305C48.6519 59.5888 49.2309 61.2846 50.2854 62.4274C51.3762 63.6095 51.9543 65.3778 51.7347 66.8601L51.2568 70.0861L57.4367 67.5062Z" fill="#95D6A4"/>
<path d="M59.4357 67.5062L53.2571 64.9227L55.8879 62.9956C57.0968 62.1101 57.9485 60.4561 58.023 58.8494C58.0949 57.296 58.8944 55.6924 60.0488 54.786L60.8337 54.1697C61.9063 53.3275 62.6796 51.8764 62.8359 50.4129L62.9088 49.7304C63.0457 48.4496 63.6573 47.1655 64.5451 46.2956L65.6589 45.2043C66.4744 44.4052 67.0611 43.2521 67.255 42.0668L67.3703 41.3623C67.5072 40.5258 67.8395 39.6933 68.3244 38.9923C69.3068 37.572 70.3417 36.2668 71.4764 35.1796C72.6113 34.092 73.9471 34.6501 73.9709 36.2217C73.9947 37.7931 73.7935 39.4466 73.4737 41.1435C73.3158 41.9811 72.9571 42.8027 72.4582 43.4879L72.038 44.0652C71.331 45.0361 70.9229 46.2638 70.9276 47.4056L70.9339 48.9649C70.939 50.2078 70.4554 51.5455 69.6404 52.5429L69.2061 53.0745C68.2748 54.2142 67.786 55.7843 67.9408 57.1391L68.054 58.1305C68.2205 59.5888 67.6416 61.2846 66.587 62.4274C65.4964 63.6095 64.9181 65.3778 65.1377 66.8601L65.6156 70.0861L59.4357 67.5062Z" fill="#95D6A4"/>
<path d="M44.221 92.1504C44.1161 91.8947 44.0293 91.6264 43.9605 91.3463C43.8469 90.8844 44.1976 90.4375 44.6732 90.4375H72.1998C72.6754 90.4375 73.026 90.8844 72.9125 91.3463C72.8437 91.6264 72.7568 91.8947 72.652 92.1504C71.944 93.8775 70.2215 94.9716 68.3549 94.9716H48.518C46.6514 94.9716 44.9289 93.8775 44.221 92.1504Z" fill="#9D6B6B"/>
<path d="M72.1996 90.4375H68.7558C69.2315 90.4375 69.582 90.8844 69.4686 91.3463C69.3998 91.6264 69.3128 91.8947 69.2081 92.1504C68.5001 93.8775 66.7775 94.9716 64.9109 94.9716H68.3547C70.2213 94.9716 71.9438 93.8775 72.6517 92.1504C72.7566 91.8947 72.8434 91.6264 72.9122 91.3463C73.026 90.8844 72.6754 90.4375 72.1996 90.4375Z" fill="#8B5E5E"/>
<path d="M49.6947 90.4366C44.9403 82.5493 43.2617 76.7074 44.6589 65.1514C44.7329 64.5391 45.2679 64.0781 45.9009 64.0781H70.9722C71.6052 64.0781 72.1401 64.5391 72.2143 65.1514C73.6115 76.7074 71.9329 82.5493 67.1785 90.4366H49.6947Z" fill="#C6865C"/>
<path d="M70.972 64.0781H68.9668C70.6 76.3532 68.9668 82.3088 64.0674 90.4366H67.1782C71.9327 82.5493 73.6113 76.7074 72.214 65.1514C72.1399 64.5391 71.6049 64.0781 70.972 64.0781Z" fill="#C17D4F"/>
<path d="M52.8626 63.9253C51.7585 64.6478 50.5217 65.1274 49.2347 65.4186C49.0151 65.4684 48.7928 65.5331 48.5682 65.6123C46.5165 66.3366 44.9494 68.395 44.6109 70.5882C44.5486 70.9921 44.4271 71.3819 44.255 71.758C43.6525 73.0744 42.4661 74.0768 41.1832 74.4456C39.9434 74.802 38.9619 75.4091 38.3067 76.3331C37.2977 77.7563 35.7204 78.6015 34.2693 78.4377L31.5494 78.1306C30.5108 78.0133 30.0442 76.8685 30.5814 75.7562L31.0277 74.8323C32.6083 71.5598 35.0514 68.6964 37.9936 66.6676L38.1022 66.5927C39.1257 65.8871 40.2107 65.3393 41.3171 64.9083C42.4814 64.4549 43.5964 63.7423 44.5764 62.817C45.1225 62.3013 45.7051 61.8488 46.3114 61.4646C48.7983 59.8886 52.1086 60.9613 53.2347 63.6817L52.8626 63.9253Z" fill="#69AF81"/>
<path d="M64.0102 63.9253C65.1142 64.6478 66.3511 65.1274 67.6381 65.4186C67.8577 65.4684 68.08 65.5331 68.3045 65.6123C70.3563 66.3366 71.9234 68.395 72.2618 70.5882C72.3242 70.9921 72.4457 71.3819 72.6178 71.758C73.2203 73.0744 74.4066 74.0768 75.6895 74.4456C76.9293 74.802 77.9109 75.4091 78.5661 76.3331C79.5751 77.7563 81.1524 78.6015 82.6035 78.4377L85.3234 78.1306C86.362 78.0133 86.8286 76.8685 86.2914 75.7562L85.8451 74.8323C84.2644 71.5598 81.8214 68.6964 78.8792 66.6676L78.7706 66.5927C77.7471 65.8871 76.6621 65.3393 75.5556 64.9083C74.3914 64.4549 73.2764 63.7423 72.2964 62.817C71.7503 62.3013 71.1677 61.8488 70.5614 61.4646C68.0745 59.8886 64.7642 60.9613 63.6382 63.6817L64.0102 63.9253Z" fill="#69AF81"/>
<path d="M59.1131 64.4766C59.8841 65.6693 60.8682 66.6788 61.968 67.5234C62.1558 67.6676 62.3405 67.8278 62.522 68.0034C64.1805 69.6075 64.8983 72.3231 64.4152 74.6414C64.3262 75.0683 64.2979 75.507 64.322 75.9537C64.4063 77.5178 65.1523 79.0233 66.2201 79.9429C67.252 80.8315 67.9503 81.857 68.2271 83.0554C68.6536 84.9009 69.8233 86.4196 71.243 86.8845L73.9041 87.756C74.9202 88.0886 75.7752 87.1567 75.6776 85.8229L75.5964 84.7151C75.3091 80.7912 74.0642 76.8996 72.0472 73.6189L71.9727 73.4979C71.271 72.3567 70.454 71.3453 69.5744 70.4403C68.6488 69.4881 67.8637 68.3004 67.283 66.9606C66.9593 66.2139 66.5784 65.514 66.1505 64.8715C64.3949 62.236 60.9012 61.8675 58.8533 64.0747L59.1131 64.4766Z" fill="#5EA570"/>
<path d="M57.7596 64.4766C56.9885 65.6693 56.0045 66.6788 54.9047 67.5234C54.7169 67.6676 54.5324 67.8278 54.3507 68.0034C52.6922 69.6075 51.9744 72.3231 52.4575 74.6414C52.5465 75.0683 52.5748 75.507 52.5507 75.9537C52.4664 77.5178 51.7204 79.0233 50.6526 79.9429C49.6207 80.8315 48.9224 81.857 48.6455 83.0554C48.2191 84.9009 47.0494 86.4196 45.6297 86.8845L42.9686 87.756C41.9525 88.0886 41.0974 87.1567 41.1951 85.8229L41.2762 84.7151C41.5635 80.7912 42.8083 76.8996 44.8254 73.6189L44.8998 73.4979C45.6015 72.3567 46.4186 71.3453 47.2982 70.4403C48.2238 69.4881 49.0088 68.3004 49.5896 66.9606C49.9132 66.2139 50.2941 65.514 50.7221 64.8715C52.4777 62.236 55.9713 61.8675 58.0193 64.0747L57.7596 64.4766Z" fill="#5EA570"/>
</svg>
