<svg width="18" height="18" viewBox="0 0 18 18" fill="none" xmlns="http://www.w3.org/2000/svg">
<path fill-rule="evenodd" clip-rule="evenodd" d="M4 6H3C1.34315 6 0 7.34315 0 9V15C0 16.6569 1.34315 18 3 18H9C10.6569 18 12 16.6569 12 15V14H10V15C10 15.5523 9.55229 16 9 16H3C2.44772 16 2 15.5523 2 15V9C2 8.44772 2.44772 8 3 8H4V6Z" fill="#B9B7BD"/>
<path fill-rule="evenodd" clip-rule="evenodd" d="M6 3C6 1.34315 7.34315 0 9 0H15C16.6569 0 18 1.34315 18 3V9C18 10.6569 16.6569 12 15 12H9C7.34315 12 6 10.6569 6 9V3ZM9 2C8.44772 2 8 2.44772 8 3V9C8 9.55229 8.44772 10 9 10H15C15.5523 10 16 9.55229 16 9V3C16 2.44772 15.5523 2 15 2H9Z" fill="#B9B7BD"/>
</svg>
