<svg width="26" height="15" viewBox="0 0 26 15" fill="none" xmlns="http://www.w3.org/2000/svg">
<path d="M13.7624 14.5927L25.1243 3.23054C25.3873 2.96774 25.5322 2.61694 25.5322 2.24288C25.5322 1.86882 25.3873 1.51802 25.1243 1.25522L24.2878 0.418477C23.7427 -0.126 22.8568 -0.126 22.3125 0.418477L12.7714 9.95959L3.21968 0.407891C2.95667 0.145097 2.60608 0 2.23223 0C1.85796 0 1.50736 0.145097 1.24416 0.407891L0.407824 1.24464C0.144822 1.50764 -6.67572e-05 1.85824 -6.67572e-05 2.23229C-6.67572e-05 2.60635 0.144822 2.95716 0.407824 3.21995L11.7802 14.5927C12.044 14.8561 12.3963 15.0008 12.7708 15C13.1467 15.0008 13.4987 14.8561 13.7624 14.5927Z" fill="#F5F5F2"/>
</svg>
