<svg width="23" height="25" viewBox="0 0 23 25" fill="none" xmlns="http://www.w3.org/2000/svg">
<path d="M21.9872 2.29497C21.9198 2.11411 21.7595 1.99609 21.5826 1.99609C18.2963 1.99609 15.2981 3.14032 13.5639 5.05544C12.8045 5.89404 12.3859 7.00829 12.3859 8.19509C12.3859 9.38093 12.8045 10.4961 13.5639 11.3347C14.3233 12.1733 15.3332 12.6356 16.407 12.6356C17.4808 12.6356 18.4907 12.1733 19.251 11.3357C20.0007 10.5077 20.2284 8.97855 20.4693 7.36035C20.7286 5.61547 20.9975 3.81061 21.8926 2.82208C22.0179 2.6838 22.0555 2.47583 21.9872 2.29497ZM19.604 7.2027C19.3867 8.66321 19.1809 10.0435 18.6309 10.6509C17.4432 11.9625 15.3709 11.9625 14.1832 10.6509C13.5893 9.9951 13.2617 9.12264 13.2617 8.19509C13.2617 7.26654 13.5884 6.39508 14.1832 5.73929C15.6021 4.17237 17.988 3.17514 20.6848 2.99333C20.0524 4.18978 19.8177 5.77121 19.604 7.2027Z" fill="white" stroke="white" stroke-width="0.75"/>
<path d="M9.98133 2.60079C9.06079 1.58324 7.54288 1 5.81739 1C5.64048 1 5.48019 1.11702 5.41274 1.29792C5.34442 1.47878 5.38207 1.68675 5.50733 1.82508C5.90587 2.26419 6.03372 3.12795 6.15812 3.96269C6.28511 4.81193 6.40426 5.6128 6.82903 6.08188C7.26345 6.56161 7.83455 6.8015 8.40561 6.8015C8.97581 6.8015 9.54686 6.56161 9.98133 6.08283C10.8511 5.12237 10.8511 3.5603 9.98133 2.60079ZM9.36297 5.39803C8.83482 5.98127 7.97644 5.98127 7.44829 5.39803C7.22231 5.14944 7.1207 4.46658 7.02261 3.80595C6.93504 3.21595 6.83954 2.57563 6.63286 2.0185C7.76976 2.16454 8.75599 2.6153 9.36297 3.28364C9.89112 3.86688 9.89112 4.81479 9.36297 5.39803Z" fill="white" stroke="white" stroke-width="0.75"/>
<path d="M17.5136 5.98352C17.3428 5.79491 17.0652 5.79491 16.8944 5.98352C14.5733 8.54572 13.3918 11.43 12.8338 13.2175C12.2085 10.7752 11.0138 6.54259 9.982 5.40318C9.81121 5.21457 9.53354 5.21457 9.36275 5.40318C9.19195 5.59179 9.19195 5.89842 9.36275 6.08703C10.3963 7.22935 11.9063 13.0163 12.4003 15.15C12.4493 15.3647 12.6245 15.5137 12.8242 15.5137C12.8286 15.5137 12.8329 15.5137 12.8382 15.5137C13.044 15.5069 13.2174 15.3434 13.2551 15.121C13.263 15.0746 14.0907 10.4473 17.5136 6.66737C17.6844 6.47876 17.6844 6.17213 17.5136 5.98352Z" fill="white" stroke="white" stroke-width="0.75"/>
<path d="M6.11861 13.7043C5.36798 12.9189 2.36637 12.6646 1.46423 12.6055C1.3381 12.6036 1.22511 12.6452 1.13754 12.7361C1.04992 12.8271 1 12.9547 1 13.0882V21.7933C1 22.0603 1.19621 22.277 1.43795 22.277H4.06558C4.25477 22.277 4.42293 22.1415 4.4816 21.9433C4.54553 21.7266 6.05469 16.6119 6.25349 14.0971C6.2649 13.95 6.21584 13.8049 6.11861 13.7043ZM3.74587 21.3097H1.87586V13.6067C3.28341 13.7295 4.80304 13.9964 5.35398 14.2924C5.12188 16.4107 4.07169 20.1742 3.74587 21.3097Z" fill="white" stroke="white" stroke-width="0.75"/>
<path d="M21.9755 19.674C21.3667 18.3305 20.0205 17.6467 18.7015 18.0113L15.346 18.9379C15.1113 19.0027 14.9685 19.2649 15.0272 19.5241C15.0858 19.7833 15.3232 19.9419 15.558 19.8761L18.9134 18.9514C19.6789 18.7406 20.4585 19.0365 20.9411 19.6827L16.5994 21.8628C12.9172 23.5293 12.7902 23.4761 11.211 22.8184L4.64193 20.4003C4.41156 20.3162 4.16456 20.4526 4.08836 20.706C4.01216 20.9594 4.13566 21.2331 4.36513 21.3173L10.9176 23.7286C11.6542 24.0352 12.1622 24.2132 12.7333 24.2132C13.6214 24.2132 14.6619 23.7847 16.948 22.7488L21.7653 20.3307C21.873 20.2765 21.9571 20.176 21.9965 20.0521C22.0359 19.9275 22.0289 19.792 21.9755 19.674Z" fill="white" stroke="white" stroke-width="0.75"/>
<path d="M13.7951 16.4564L5.91224 14.5219C5.67839 14.4687 5.4419 14.6292 5.38935 14.8894C5.33766 15.1506 5.48571 15.4088 5.72219 15.4669L13.5937 17.3985C14.5642 17.6664 14.9539 18.0881 15.0074 18.9712L14.1665 19.2033C13.8547 19.2894 13.5236 19.2991 13.2066 19.2285L9.40703 18.3889C9.16615 18.3338 8.93931 18.506 8.89201 18.7681C8.84472 19.0302 8.99798 19.2846 9.23537 19.3368L13.0358 20.1764C13.2329 20.2199 13.4352 20.2412 13.6366 20.2412C13.8871 20.2412 14.1377 20.2073 14.3794 20.1406L15.5583 19.8156C15.7537 19.7614 15.8903 19.568 15.8903 19.3465V19.1936C15.8902 17.7002 15.2482 16.8568 13.7951 16.4564Z" fill="white" stroke="white" stroke-width="0.75"/>
</svg>
