<svg width="292" height="147" viewBox="0 0 292 147" fill="none" xmlns="http://www.w3.org/2000/svg">
<rect x="92.2607" y="0.03125" width="105.19" height="145.978" rx="43.1692" fill="#C7B0FF"/>
<mask id="mask0_599:4439" style="mask-type:alpha" maskUnits="userSpaceOnUse" x="92" y="0" width="106" height="147">
<rect x="92.2607" y="0.03125" width="105.19" height="145.978" rx="43.1692" fill="#5B84EE"/>
</mask>
<g mask="url(#mask0_599:4439)">
<mask id="mask1_599:4439" style="mask-type:alpha" maskUnits="userSpaceOnUse" x="85" y="11" width="139" height="147">
<rect x="85.3625" y="11.4844" width="137.954" height="145.978" rx="43.1692" fill="#5B84EE"/>
</mask>
<g mask="url(#mask1_599:4439)">
<path d="M223.317 157.462V11.4844L85.3625 112.011V157.462H223.317Z" fill="#DFD2FF"/>
</g>
</g>
<ellipse cx="160.372" cy="42.5812" rx="5.17328" ry="14.0363" fill="black"/>
<ellipse cx="128.904" cy="42.5812" rx="5.17328" ry="14.0363" fill="black"/>
<path d="M56.8059 46.6521C49.3772 50.7159 35.2074 77.3842 35.2074 77.3842C35.2074 77.3842 65.5962 80.4771 73.025 76.4133C80.4537 72.3494 88.2791 57.7598 84.3295 50.5124C80.3799 43.2651 64.2347 42.5882 56.8059 46.6521Z" fill="#AACFCD"/>
<path d="M35.1849 77.3664C35.1849 77.3664 49.3542 50.6995 56.7828 46.6359C64.2113 42.5723 80.356 43.2491 84.3054 50.4961L59.7452 63.9312L35.1849 77.3664Z" fill="#90AEAD"/>
<path d="M234.216 42.3025C241.645 46.3663 255.815 73.0346 255.815 73.0346C255.815 73.0346 225.426 76.1275 217.997 72.0637C210.569 67.9998 202.743 53.4102 206.693 46.1628C210.643 38.9155 226.788 38.2386 234.216 42.3025Z" fill="#AACFCD"/>
<path d="M255.838 73.0891C255.838 73.0891 241.668 46.4222 234.24 42.3586C226.811 38.295 210.667 38.9718 206.717 46.2188L231.277 59.6539L255.838 73.0891Z" fill="#90AEAD"/>
</svg>
