<svg width="18" height="18" viewBox="0 0 18 18" fill="none" xmlns="http://www.w3.org/2000/svg">
<path fill-rule="evenodd" clip-rule="evenodd" d="M2.57481 4.67791C3.1187 4.58201 3.63736 4.94518 3.73326 5.48907L5.73022 16.8144C5.82612 17.3583 5.46295 17.8769 4.91906 17.9728C4.37516 18.0687 3.85651 17.7056 3.7606 17.1617L1.76365 5.83637C1.66774 5.29248 2.03091 4.77382 2.57481 4.67791Z" fill="#B9B7BD"/>
<path fill-rule="evenodd" clip-rule="evenodd" d="M15.4252 4.67791C14.8813 4.58201 14.3626 4.94518 14.2667 5.48907L12.2698 16.8144C12.1739 17.3583 12.537 17.8769 13.0809 17.9728C13.6248 18.0687 14.1435 17.7056 14.2394 17.1617L16.2364 5.83637C16.3323 5.29248 15.9691 4.77382 15.4252 4.67791Z" fill="#B9B7BD"/>
<path fill-rule="evenodd" clip-rule="evenodd" d="M3.75 17C3.75 16.4477 4.19772 16 4.75 16H13.25C13.8023 16 14.25 16.4477 14.25 17C14.25 17.5523 13.8023 18 13.25 18H4.75C4.19772 18 3.75 17.5523 3.75 17Z" fill="#B9B7BD"/>
<path fill-rule="evenodd" clip-rule="evenodd" d="M1 3.25C1 2.83579 1.33579 2.5 1.75 2.5H16.25C16.6642 2.5 17 2.83579 17 3.25C17 3.66421 16.6642 4 16.25 4H1.75C1.33579 4 1 3.66421 1 3.25Z" fill="#B9B7BD"/>
<path fill-rule="evenodd" clip-rule="evenodd" d="M4.25 1.75C4.25 0.783502 5.0335 0 6 0H12C12.9665 0 13.75 0.783502 13.75 1.75V4H4.25V1.75ZM6 1.5C5.86193 1.5 5.75 1.61193 5.75 1.75V2.5H12.25V1.75C12.25 1.61193 12.1381 1.5 12 1.5H6Z" fill="#B9B7BD"/>
</svg>
